<?xml version="1.0" standalone="no"?>
<!DOCTYPE svg PUBLIC "-//W3C//DTD SVG 20010904//EN"
 "http://www.w3.org/TR/2001/REC-SVG-20010904/DTD/svg10.dtd">
<svg version="1.0" xmlns="http://www.w3.org/2000/svg"
 width="1210.000000pt" height="331.000000pt" viewBox="0 0 1210.000000 331.000000"
 preserveAspectRatio="xMidYMid meet">

<g transform="translate(0.000000,331.000000) scale(0.100000,-0.100000)"
fill="#000000" stroke="none">
<path d="M1096 2939 c-257 -26 -444 -110 -604 -271 -204 -206 -290 -393 -327
-708 -23 -194 -16 -476 14 -585 8 -29 9 -28 50 53 89 177 191 312 353 467 111
107 200 173 361 266 253 147 236 144 747 144 466 0 491 -3 622 -72 67 -35 148
-111 148 -139 0 -12 64 -14 365 -14 305 0 365 2 365 14 0 32 -54 197 -90 273
-56 119 -130 221 -230 316 -134 127 -271 197 -470 239 -88 19 -136 21 -655 23
-308 2 -600 -1 -649 -6z"/>
<path d="M5304 2390 c-279 -43 -425 -244 -427 -585 -1 -149 14 -220 68 -331
61 -125 175 -214 313 -243 84 -18 701 -15 780 4 181 43 309 178 358 381 23 91
23 284 1 376 -46 191 -162 326 -327 380 -60 20 -88 22 -390 24 -179 1 -348 -1
-376 -6z m651 -329 c49 -22 98 -76 116 -128 8 -22 14 -78 14 -133 0 -111 -22
-170 -82 -219 -60 -49 -104 -56 -368 -56 -262 0 -291 5 -350 56 -54 48 -79
119 -79 224 0 104 13 152 57 202 61 69 79 73 382 73 240 0 274 -2 310 -19z"/>
<path d="M8513 2389 c-203 -34 -353 -182 -398 -396 -22 -103 -20 -302 5 -397
38 -149 122 -266 229 -320 105 -54 132 -56 704 -56 l527 0 -2 333 -3 332 -392
3 -393 2 0 -120 0 -120 225 0 c124 0 225 -3 225 -6 0 -26 -47 -75 -93 -95 -50
-23 -61 -24 -297 -24 l-245 0 -60 30 c-69 35 -99 81 -115 179 -21 133 21 259
105 311 l48 30 240 3 c273 3 314 -4 366 -64 l30 -34 175 0 175 0 -15 53 c-59
198 -209 330 -407 356 -92 13 -559 13 -634 0z"/>
<path d="M10695 2385 c-194 -35 -330 -171 -382 -383 -22 -91 -22 -303 0 -394
50 -205 180 -338 365 -377 33 -7 181 -11 385 -11 359 0 398 4 504 56 185 90
291 336 263 611 -16 156 -71 286 -158 376 -52 54 -180 115 -267 127 -103 14
-625 11 -710 -5z m650 -316 c59 -16 104 -55 131 -113 20 -43 24 -67 24 -151 0
-84 -4 -108 -24 -150 -28 -60 -46 -77 -111 -107 -48 -22 -60 -23 -305 -23
-246 0 -257 1 -307 23 -85 39 -133 133 -133 262 0 149 75 251 198 269 70 10
483 2 527 -10z"/>
<path d="M3430 1795 l0 -575 665 0 665 0 0 155 0 155 -500 0 -500 0 0 55 0 55
455 0 455 0 0 150 0 150 -455 0 -455 0 0 55 0 55 498 2 497 3 0 155 0 155
-662 3 -663 2 0 -575z"/>
<path d="M6590 1795 l0 -575 170 0 170 0 0 180 0 180 293 0 c387 0 384 1 412
-209 8 -61 19 -120 25 -131 10 -19 22 -20 180 -20 l169 0 -24 53 c-18 40 -25
77 -30 167 -4 63 -11 131 -16 151 -12 48 -60 112 -109 148 l-41 29 31 18 c69
42 112 146 113 274 0 138 -50 223 -159 271 -69 31 -207 39 -706 39 l-478 0 0
-575z m1001 226 c29 -35 26 -105 -6 -136 l-24 -25 -316 0 -315 0 0 95 0 96
321 -3 321 -3 19 -24z"/>
<path d="M9790 1795 l0 -575 165 0 165 0 -3 573 -2 572 -162 3 -163 2 0 -575z"/>
<path d="M3177 1082 c-77 -220 -286 -440 -503 -532 -35 -15 -67 -30 -71 -33
-3 -4 131 -7 299 -7 l306 0 3 33 c2 17 2 164 -1 324 l-5 293 -28 -78z"/>
</g>
</svg>
